<svg width="32" height="32" viewBox="0 0 32 32" fill="none" xmlns="http://www.w3.org/2000/svg">
<path d="M28.4563 3.54026C27.9678 3.05164 27.3879 2.66403 26.7496 2.39958C26.1113 2.13514 25.4272 1.99902 24.7363 1.99902C24.0454 1.99902 23.3612 2.13514 22.723 2.39958C22.0847 2.66403 21.5047 3.05164 21.0163 3.54026L18.0393 6.51826C17.3606 7.19815 16.8807 8.05062 16.6514 8.98351C16.4221 9.91639 16.4521 10.8942 16.7383 11.8113L19.2223 9.32726C19.5513 8.99826 19.9443 8.77726 20.3623 8.66126L23.2483 5.77426C23.4437 5.57885 23.6758 5.42386 23.9312 5.31813C24.1865 5.2124 24.4602 5.15801 24.7366 5.15806C25.013 5.1581 25.2867 5.21259 25.542 5.3184C25.7974 5.42422 26.0294 5.57929 26.2248 5.77476C26.4202 5.97023 26.5752 6.20228 26.6809 6.45765C26.7866 6.71302 26.841 6.98672 26.841 7.26311C26.8409 7.53951 26.7864 7.81319 26.6806 8.06852C26.5748 8.32386 26.4197 8.55585 26.2243 8.75126L23.6393 11.3363C23.5972 11.9607 23.3296 12.5485 22.8863 12.9903L20.5213 15.3543C21.3979 15.5668 22.3145 15.5503 23.183 15.3063C24.0514 15.0624 24.8425 14.5992 25.4803 13.9613L28.4563 10.9843C28.9452 10.4958 29.3331 9.9157 29.5977 9.27723C29.8623 8.63876 29.9985 7.9544 29.9985 7.26326C29.9985 6.57212 29.8623 5.88776 29.5977 5.24929C29.3331 4.61082 28.9452 4.03076 28.4563 3.54226" fill="#3C8036"/>
<path d="M15.6986 12.2321C14.7847 11.9512 13.8115 11.9248 12.8836 12.1556C11.9558 12.3864 11.1084 12.8657 10.4326 13.5421L7.45659 16.5201C6.50725 17.5143 5.98457 18.8405 6.00035 20.2151C6.01612 21.5897 6.56909 22.9035 7.541 23.8757C8.51291 24.8479 9.82662 25.4012 11.2012 25.4173C12.5758 25.4335 13.9021 24.9112 14.8966 23.9621L17.8736 20.9861C18.5156 20.3448 18.9809 19.5484 19.2241 18.6742C19.4673 17.8 19.4802 16.8778 19.2616 15.9971L16.7666 18.4921C16.3346 18.9241 15.7634 19.1888 15.1546 19.2391L12.6646 21.7291C12.2692 22.1223 11.7342 22.3431 11.1766 22.3431C10.6189 22.3431 10.084 22.1223 9.68859 21.7291C9.29503 21.3337 9.07408 20.7985 9.07408 20.2406C9.07408 19.6827 9.29503 19.1475 9.68859 18.7521L12.4256 16.0151C12.5418 15.5664 12.7759 15.1569 13.1036 14.8291L15.6986 12.2321Z" fill="#3C8036"/>
<path d="M12.3463 17.4494C12.2109 17.5784 12.1023 17.7329 12.0266 17.904C11.951 18.075 11.9097 18.2593 11.9053 18.4463C11.9009 18.6332 11.9333 18.8193 12.0008 18.9937C12.0683 19.1681 12.1695 19.3276 12.2986 19.4629C12.5598 19.7352 12.9182 19.8931 13.2955 19.902C13.6728 19.911 14.0383 19.7702 14.3121 19.5106L17.2734 16.6855L17.3209 16.6446C17.7525 16.2346 17.663 15.4397 17.1211 14.8688C16.5801 14.2979 15.7913 14.1673 15.3597 14.5763L15.3212 14.6157L15.3185 14.6138L12.3463 17.4494Z" fill="#3C8036"/>
<path d="M17.8443 12.2043C17.709 12.3333 17.6003 12.4878 17.5247 12.6588C17.449 12.8299 17.4078 13.0142 17.4034 13.2011C17.3989 13.3881 17.4314 13.5742 17.4989 13.7486C17.5663 13.923 17.6675 14.0825 17.7966 14.2178C18.0579 14.4901 18.4163 14.648 18.7936 14.6569C19.1708 14.6658 19.5363 14.5251 19.8102 14.2655L22.7714 11.4404L22.819 11.3994C23.2506 10.9895 23.161 10.1946 22.6192 9.62371C22.0782 9.05281 21.2894 8.92215 20.8578 9.33116L20.8192 9.37056L20.8166 9.3687L17.8443 12.2043Z" fill="#3C8036"/>
</svg>
