<svg width="125" height="119" viewBox="0 0 125 119" fill="none" xmlns="http://www.w3.org/2000/svg">
<path d="M36 76L44.5 67.5L62 94L80 67.5L86.5 74.5C78.2213 83.7482 76.0289 88.3195 76 95.5L70.5 103.5L62 94L54 103.5L36 76Z" fill="black"/>
<path d="M62 94L44.5 67.5L36 76L54 103.5L62 94ZM62 94L80 67.5L86.5 74.5C78.2213 83.7482 76.0289 88.3195 76 95.5L70.5 103.5L62 94Z" stroke="black"/>
<rect x="36" width="53" height="69" rx="26.5" fill="black"/>
<path d="M77 101.5C77.6927 107.207 79.26 110.684 87.5 118H1.5C7.02327 93.1537 12.7915 83.705 33 79L54 110.5L62.5 101.5L71 110.5L77 101.5Z" fill="black" stroke="black"/>
<circle cx="103" cy="96" r="22" fill="black"/>
<path d="M101.17 105.912V86.2244H104.511V105.912H101.17ZM92.9972 97.7386V94.3977H112.685V97.7386H92.9972Z" fill="white"/>
</svg>
