<svg width="24" height="24" viewBox="0 0 24 24" fill="none" xmlns="http://www.w3.org/2000/svg">
<path d="M5.30706 8.30706C5.50373 8.11045 5.77044 8 6.04853 8C6.32662 8 6.59333 8.11045 6.79 8.30706L11.9813 13.4984L17.1727 8.30706C17.3705 8.11602 17.6354 8.01031 17.9104 8.0127C18.1853 8.01509 18.4484 8.12539 18.6428 8.31984C18.8373 8.51428 18.9476 8.77732 18.95 9.0523C18.9523 9.32728 18.8466 9.5922 18.6556 9.79L12.7228 15.7228C12.5261 15.9194 12.2594 16.0299 11.9813 16.0299C11.7032 16.0299 11.4365 15.9194 11.2399 15.7228L5.30706 9.79C5.11045 9.59333 5 9.32662 5 9.04853C5 8.77044 5.11045 8.50373 5.30706 8.30706Z" fill="#0D52A7"/>
</svg>
