<svg width="186" height="186" viewBox="0 0 186 186" fill="none" xmlns="http://www.w3.org/2000/svg">
<circle cx="93" cy="93" r="93" fill="#0055A5"/>
<path d="M87 65.5H79V63C79.0113 61.4755 78.5424 61.0669 77 61H66C64.2385 60.9611 63.6617 61.2501 63.5 62.5V66H56V121C56.2635 123.752 56.6117 125.023 58.5 126C60.5638 127.457 61.7945 127.71 64 128H142.5C147.527 127.939 148.53 126.228 148.5 121.5V71.5C148.483 67.0462 147.48 65.6007 143.5 65.5H117.5L111 56H93.5L87 65.5Z" fill="white" stroke="white"/>
<circle cx="51.5" cy="84" r="20.5" fill="#0055A5"/>
<circle cx="50.5" cy="84" r="19.5" fill="white"/>
<path d="M40.5635 84.8623C39.9482 84.8623 39.6406 84.623 39.6406 84.1445V83.1191C39.6406 82.6406 39.9482 82.4014 40.5635 82.4014H49.874V73.0703C49.874 72.4551 50.1133 72.1475 50.5918 72.1475H51.6172C52.0957 72.1475 52.335 72.4551 52.335 73.0703V82.4014H61.6865C62.3018 82.4014 62.6094 82.6406 62.6094 83.1191V84.1445C62.6094 84.623 62.3018 84.8623 61.6865 84.8623H52.335V94.1934C52.335 94.8086 52.0957 95.1162 51.6172 95.1162H50.5918C50.1133 95.1162 49.874 94.8086 49.874 94.1934V84.8623H40.5635Z" fill="#0055A5"/>
<circle cx="102" cy="96.5" r="19" fill="#0055A5"/>
<circle cx="102" cy="96.5" r="14" fill="white"/>
<rect x="127" y="74.5" width="14" height="5" rx="2.5" fill="#0055A5"/>
</svg>
