<svg width="24" height="24" viewBox="0 0 24 24" fill="none" xmlns="http://www.w3.org/2000/svg">
<path d="M17.6534 6.34133C16.9111 5.59749 16.0293 5.00761 15.0584 4.60558C14.0876 4.20356 13.0468 3.9973 11.996 3.99866C7.57736 3.99866 3.99536 7.58066 3.99536 11.9993C3.99536 14.2087 4.89136 16.2093 6.33936 17.6573C7.08158 18.4012 7.96345 18.9911 8.93431 19.3931C9.90517 19.7951 10.9459 20.0014 11.9967 20C16.4154 20 19.9974 16.418 19.9974 11.9993C19.9974 9.79 19.1014 7.78933 17.6534 6.34133ZM16.6254 16.626C16.0182 17.2347 15.2967 17.7175 14.5024 18.0465C13.708 18.3756 12.8565 18.5444 11.9967 18.5433C8.38136 18.5433 5.45069 15.6127 5.45069 11.9973C5.44962 11.1375 5.61845 10.286 5.94749 9.49168C6.27653 8.69734 6.75929 7.97585 7.36803 7.36866C7.97507 6.75991 8.69644 6.27714 9.49067 5.9481C10.2849 5.61906 11.1363 5.45023 11.996 5.45133C15.6107 5.45133 18.5414 8.382 18.5414 11.9967C18.5425 12.8564 18.3737 13.7078 18.0446 14.502C17.7156 15.2963 17.2328 16.0176 16.624 16.6247L16.6254 16.626Z" fill="black"/>
<path d="M13.0248 12L15.5948 9.43001C15.7216 9.29183 15.7901 9.11003 15.786 8.92255C15.7819 8.73507 15.7056 8.5564 15.573 8.42384C15.4403 8.29129 15.2616 8.21508 15.0741 8.21114C14.8866 8.2072 14.7049 8.27582 14.5668 8.40268L14.5675 8.40201L11.9975 10.972L9.42745 8.40201C9.28927 8.27524 9.10746 8.20674 8.91998 8.2108C8.7325 8.21487 8.55384 8.29119 8.42128 8.42383C8.28872 8.55647 8.21252 8.73519 8.20858 8.92267C8.20463 9.11015 8.27325 9.29192 8.40012 9.43001L8.39945 9.42935L10.9695 11.9993L8.39945 14.5693C8.32714 14.6357 8.269 14.716 8.22854 14.8054C8.18807 14.8948 8.16612 14.9914 8.16399 15.0895C8.16186 15.1876 8.17961 15.2852 8.21616 15.3762C8.25271 15.4673 8.30732 15.55 8.37668 15.6194C8.44605 15.6888 8.52874 15.7435 8.61978 15.7801C8.71083 15.8167 8.80834 15.8345 8.90645 15.8325C9.00455 15.8304 9.10123 15.8085 9.19065 15.7681C9.28008 15.7277 9.3604 15.6696 9.42678 15.5973L9.42745 15.5967L11.9975 13.0267L14.5675 15.5967C14.6338 15.669 14.7141 15.7271 14.8035 15.7676C14.8929 15.8081 14.9895 15.83 15.0876 15.8321C15.1857 15.8343 15.2833 15.8165 15.3743 15.78C15.4654 15.7434 15.5481 15.6888 15.6175 15.6194C15.6869 15.5501 15.7416 15.4674 15.7782 15.3763C15.8148 15.2853 15.8326 15.1878 15.8306 15.0897C15.8285 14.9916 15.8066 14.8949 15.7662 14.8055C15.7258 14.7161 15.6677 14.6357 15.5955 14.5693L15.5948 14.5687L13.0248 12Z" fill="black"/>
</svg>
