<svg width="127" height="157" viewBox="0 0 127 157" fill="none" xmlns="http://www.w3.org/2000/svg">
<path d="M10 6C10 2.6863 12.6863 0 16 0H75C103.167 0 126 22.8335 126 51V151C126 154.314 123.314 157 120 157H16C12.6863 157 10 154.314 10 151V6Z" fill="#E1E6E9"/>
<rect y="88" width="126" height="43" fill="#2D93BA"/>
<path d="M126 27L98.5 0H73.5L95.5 30L126 55.5V27Z" fill="#E1E6E9"/>
<g filter="url(#filter0_d_369_838)">
<path d="M126 27L98.5 0V27H126Z" fill="#E1E6E9"/>
</g>
<path d="M10 131H0L10 138.5V131Z" fill="#2D93BA"/>
<path d="M126 40L104 27H126V40Z" fill="#D5D6DB"/>
<path d="M32.1313 124H23.3785V95.6364H32.5191C35.2706 95.6364 37.625 96.2042 39.5823 97.3398C41.5397 98.4663 43.0401 100.087 44.0834 102.201C45.1267 104.306 45.6484 106.827 45.6484 109.763C45.6484 112.717 45.1221 115.261 44.0696 117.394C43.017 119.517 41.4843 121.152 39.4715 122.297C37.4588 123.432 35.012 124 32.1313 124ZM26.8132 120.953H31.9098C34.2549 120.953 36.1985 120.501 37.7404 119.596C39.2823 118.691 40.4318 117.403 41.1889 115.732C41.946 114.061 42.3245 112.071 42.3245 109.763C42.3245 107.473 41.9506 105.502 41.2027 103.849C40.4549 102.187 39.3377 100.913 37.8512 100.027C36.3647 99.131 34.5135 98.6832 32.2975 98.6832H26.8132V120.953ZM75.3416 109.818C75.3416 112.81 74.8014 115.395 73.7212 117.574C72.6409 119.753 71.159 121.433 69.2755 122.615C67.392 123.797 65.2407 124.388 62.8217 124.388C60.4027 124.388 58.2514 123.797 56.3679 122.615C54.4843 121.433 53.0024 119.753 51.9222 117.574C50.8419 115.395 50.3018 112.81 50.3018 109.818C50.3018 106.827 50.8419 104.241 51.9222 102.062C53.0024 99.8835 54.4843 98.2031 56.3679 97.0213C58.2514 95.8395 60.4027 95.2486 62.8217 95.2486C65.2407 95.2486 67.392 95.8395 69.2755 97.0213C71.159 98.2031 72.6409 99.8835 73.7212 102.062C74.8014 104.241 75.3416 106.827 75.3416 109.818ZM72.0177 109.818C72.0177 107.362 71.6068 105.289 70.7851 103.6C69.9726 101.91 68.8693 100.631 67.4751 99.7635C66.0902 98.8956 64.539 98.4616 62.8217 98.4616C61.1044 98.4616 59.5486 98.8956 58.1544 99.7635C56.7695 100.631 55.6661 101.91 54.8444 103.6C54.0319 105.289 53.6257 107.362 53.6257 109.818C53.6257 112.274 54.0319 114.347 54.8444 116.037C55.6661 117.726 56.7695 119.005 58.1544 119.873C59.5486 120.741 61.1044 121.175 62.8217 121.175C64.539 121.175 66.0902 120.741 67.4751 119.873C68.8693 119.005 69.9726 117.726 70.7851 116.037C71.6068 114.347 72.0177 112.274 72.0177 109.818ZM103.941 104.5H100.506C100.303 103.512 99.9474 102.644 99.4396 101.896C98.941 101.148 98.3316 100.521 97.6115 100.013C96.9005 99.4957 96.1111 99.108 95.2432 98.8494C94.3753 98.5909 93.4705 98.4616 92.5287 98.4616C90.8114 98.4616 89.2556 98.8956 87.8615 99.7635C86.4765 100.631 85.3732 101.91 84.5514 103.6C83.7389 105.289 83.3327 107.362 83.3327 109.818C83.3327 112.274 83.7389 114.347 84.5514 116.037C85.3732 117.726 86.4765 119.005 87.8615 119.873C89.2556 120.741 90.8114 121.175 92.5287 121.175C93.4705 121.175 94.3753 121.045 95.2432 120.787C96.1111 120.528 96.9005 120.145 97.6115 119.637C98.3316 119.12 98.941 118.488 99.4396 117.74C99.9474 116.983 100.303 116.115 100.506 115.136H103.941C103.682 116.586 103.211 117.883 102.528 119.028C101.845 120.173 100.995 121.147 99.9797 121.95C98.9641 122.744 97.8238 123.349 96.5589 123.765C95.3032 124.18 93.9598 124.388 92.5287 124.388C90.1097 124.388 87.9584 123.797 86.0749 122.615C84.1914 121.433 82.7095 119.753 81.6292 117.574C80.549 115.395 80.0088 112.81 80.0088 109.818C80.0088 106.827 80.549 104.241 81.6292 102.062C82.7095 99.8835 84.1914 98.2031 86.0749 97.0213C87.9584 95.8395 90.1097 95.2486 92.5287 95.2486C93.9598 95.2486 95.3032 95.4563 96.5589 95.8718C97.8238 96.2873 98.9641 96.8967 99.9797 97.6999C100.995 98.494 101.845 99.4634 102.528 100.608C103.211 101.744 103.682 103.041 103.941 104.5Z" fill="white"/>
<defs>
<filter id="filter0_d_369_838" x="97.5" y="0" width="29.5" height="29" filterUnits="userSpaceOnUse" color-interpolation-filters="sRGB">
<feFlood flood-opacity="0" result="BackgroundImageFix"/>
<feColorMatrix in="SourceAlpha" type="matrix" values="0 0 0 0 0 0 0 0 0 0 0 0 0 0 0 0 0 0 127 0" result="hardAlpha"/>
<feOffset dy="1"/>
<feGaussianBlur stdDeviation="0.5"/>
<feComposite in2="hardAlpha" operator="out"/>
<feColorMatrix type="matrix" values="0 0 0 0 0 0 0 0 0 0 0 0 0 0 0 0 0 0 0.12 0"/>
<feBlend mode="normal" in2="BackgroundImageFix" result="effect1_dropShadow_369_838"/>
<feBlend mode="normal" in="SourceGraphic" in2="effect1_dropShadow_369_838" result="shape"/>
</filter>
</defs>
</svg>
