<svg width="21" height="24" viewBox="0 0 21 24" fill="none" xmlns="http://www.w3.org/2000/svg">
<path d="M4.57143 3C3.15313 3 2 4.15313 2 5.57143V18.4286C2 19.8469 3.15313 21 4.57143 21H17.4286C18.8469 21 20 19.8469 20 18.4286V5.57143C20 4.15313 18.8469 3 17.4286 3H4.57143Z" fill="#0D52A7"/>
<path d="M15.0714 14.625H16.9464L17.6964 11.625H15.0714V10.125C15.0714 9.3525 15.0714 8.625 16.5714 8.625H17.6964V6.105C17.4519 6.07275 16.5287 6 15.5537 6C13.5174 6 12.0714 7.24275 12.0714 9.525V11.625H9.82143V14.625H12.0714V21H15.0714V14.625Z" fill="#ECF4FF"/>
</svg>