<svg width="256" height="256" viewBox="0 0 256 256" fill="none" xmlns="http://www.w3.org/2000/svg">
<g clip-path="url(#clip0_705_1825)">
<path d="M128 56C167.764 56 200 88.2355 200 128C200 167.764 167.764 200 128 200C88.2355 200 56 167.764 56 128C56 88.2355 88.2355 56 128 56Z" fill="url(#paint0_radial_705_1825)"/>
<path d="M128 212C134.628 212 140 217.372 140 224V236C140 242.628 134.628 248 128 248C121.372 248 116 242.628 116 236V224C116 217.372 121.372 212 128 212ZM204.368 187.398L212.853 195.883C217.539 200.569 217.539 208.166 212.853 212.853C208.167 217.539 200.569 217.539 195.883 212.853L187.398 204.368C182.712 199.681 182.712 192.084 187.398 187.398C192.084 182.71 199.682 182.71 204.368 187.398ZM51.6318 187.398C56.3181 182.71 63.9162 182.71 68.6024 187.398C72.9282 191.723 73.2609 198.53 69.6007 203.238L68.6024 204.368L60.1171 212.853C55.4308 217.539 47.8328 217.539 43.1466 212.853C38.8207 208.528 38.4879 201.721 42.1483 197.013L43.1466 195.883L51.6318 187.398ZM32 116C38.6274 116 44 121.372 44 128C44 134.154 39.3675 139.226 33.3994 139.919L32 140H20C13.3726 140 8 134.628 8 128C8 121.846 12.6325 116.774 18.6006 116.081L20 116H32ZM236 116C242.628 116 248 121.372 248 128C248 134.628 242.628 140 236 140H224C217.372 140 212 134.628 212 128C212 121.372 217.372 116 224 116H236ZM43.1469 43.1466C47.4727 38.8208 54.2795 38.488 58.987 42.1483L60.1174 43.1466L68.6028 51.6319C73.289 56.3181 73.289 63.9162 68.6028 68.6024C64.2769 72.9282 57.4702 73.2609 52.7626 69.6007L51.6322 68.6024L43.1469 60.1171C38.4606 55.4308 38.4606 47.8328 43.1469 43.1466ZM212.853 43.1468C217.539 47.833 217.539 55.4311 212.853 60.1173L204.368 68.6026C199.681 73.2889 192.084 73.2889 187.398 68.6026C182.71 63.9163 182.71 56.3184 187.398 51.632L195.883 43.1468C200.569 38.4604 208.166 38.4604 212.853 43.1468ZM128 8C134.628 8 140 13.3726 140 20V32C140 38.6274 134.628 44 128 44C121.372 44 116 38.6274 116 32V20C116 13.3726 121.372 8 128 8Z" fill="url(#paint1_linear_705_1825)"/>
</g>
<defs>
<radialGradient id="paint0_radial_705_1825" cx="0" cy="0" r="1" gradientUnits="userSpaceOnUse" gradientTransform="translate(78 74) rotate(43.0203) scale(166.858 166.858)">
<stop offset="0.193671" stop-color="#FFE475"/>
<stop offset="0.529275" stop-color="#FFB029"/>
<stop offset="0.780467" stop-color="#FF9100"/>
</radialGradient>
<linearGradient id="paint1_linear_705_1825" x1="6.49999" y1="6.5" x2="249.5" y2="249.5" gradientUnits="userSpaceOnUse">
<stop offset="0.166667" stop-color="#FFE475"/>
<stop offset="0.798611" stop-color="#FFBF29"/>
</linearGradient>
<clipPath id="clip0_705_1825">
<rect width="256" height="256" fill="white"/>
</clipPath>
</defs>
</svg>
