<svg width="32" height="32" viewBox="0 0 32 32" fill="none" xmlns="http://www.w3.org/2000/svg">
<path d="M28.4563 3.54026C27.9678 3.05164 27.3879 2.66403 26.7496 2.39958C26.1113 2.13514 25.4272 1.99902 24.7363 1.99902C24.0454 1.99902 23.3612 2.13514 22.723 2.39958C22.0847 2.66403 21.5047 3.05164 21.0163 3.54026L18.0393 6.51826C17.3606 7.19815 16.8807 8.05062 16.6514 8.98351C16.4221 9.91639 16.4521 10.8942 16.7383 11.8113L19.2223 9.32726C19.5513 8.99826 19.9443 8.77726 20.3623 8.66126L23.2483 5.77426C23.4437 5.57885 23.6758 5.42386 23.9312 5.31813C24.1865 5.2124 24.4602 5.15801 24.7366 5.15806C25.013 5.1581 25.2867 5.21259 25.542 5.3184C25.7974 5.42422 26.0294 5.57929 26.2248 5.77476C26.4202 5.97023 26.5752 6.20228 26.6809 6.45765C26.7866 6.71302 26.841 6.98672 26.841 7.26311C26.8409 7.53951 26.7864 7.81319 26.6806 8.06852C26.5748 8.32386 26.4197 8.55585 26.2243 8.75126L23.6393 11.3363C23.5972 11.9607 23.3296 12.5485 22.8863 12.9903L20.5213 15.3543C21.3979 15.5668 22.3145 15.5503 23.183 15.3063C24.0514 15.0624 24.8425 14.5992 25.4803 13.9613L28.4563 10.9843C28.9452 10.4958 29.3331 9.9157 29.5977 9.27723C29.8623 8.63876 29.9985 7.9544 29.9985 7.26326C29.9985 6.57212 29.8623 5.88776 29.5977 5.24929C29.3331 4.61082 28.9452 4.03076 28.4563 3.54226" fill="#FD2F00" fill-opacity="0.9"/>
<path d="M22.1796 12.2818L18.2526 16.2078L18.2496 16.2098C17.7796 16.6788 16.8946 16.5528 16.2756 15.9298C15.6556 15.3068 15.5356 14.4228 16.0056 13.9538L16.0436 13.9188L19.9296 10.0328C20.0773 9.88495 20.2526 9.76766 20.4457 9.68763C20.6387 9.6076 20.8456 9.56641 21.0546 9.56641C21.2636 9.56641 21.4705 9.6076 21.6635 9.68763C21.8566 9.76766 22.0319 9.88495 22.1796 10.0328C22.3273 10.1805 22.4445 10.3558 22.5244 10.5487C22.6044 10.7417 22.6455 10.9485 22.6455 11.1573C22.6455 11.3662 22.6044 11.573 22.5244 11.7659C22.4445 11.9588 22.3273 12.1342 22.1796 12.2818ZM11.7816 16.7298C10.8677 16.4489 9.89447 16.4225 8.96663 16.6533C8.03879 16.8841 7.19141 17.3635 6.5156 18.0398L3.5396 21.0178C2.59025 22.012 2.06758 23.3382 2.08335 24.7128C2.09913 26.0874 2.65209 27.4013 3.62401 28.3734C4.59592 29.3456 5.90963 29.8989 7.28421 29.9151C8.65879 29.9312 9.98513 29.4089 10.9796 28.4598L13.9566 25.4838C14.5986 24.8426 15.0639 24.0462 15.3071 23.1719C15.5503 22.2977 15.5632 21.3755 15.3446 20.4948L12.8496 22.9898C12.4177 23.4218 11.8464 23.6865 11.2376 23.7368L8.7476 26.2268C8.35223 26.6201 7.81725 26.8408 7.2596 26.8408C6.70195 26.8408 6.16697 26.6201 5.7716 26.2268C5.37803 25.8314 5.15708 25.2962 5.15708 24.7383C5.15708 24.1804 5.37803 23.6452 5.7716 23.2498L8.5086 20.5128C8.62485 20.0641 8.85893 19.6546 9.1866 19.3268L11.7816 16.7298Z" fill="#FD2F00" fill-opacity="0.9"/>
<path d="M9.89403 20.0345C9.74632 20.1821 9.62915 20.3574 9.54921 20.5504C9.46927 20.7433 9.42813 20.9501 9.42813 21.159C9.42813 21.3678 9.46927 21.5746 9.54921 21.7676C9.62915 21.9605 9.74632 22.1358 9.89403 22.2835C10.1929 22.5805 10.5971 22.7473 11.0185 22.7473C11.4399 22.7473 11.8442 22.5805 12.143 22.2835L15.374 19.0515L15.426 19.0045C15.897 18.5355 15.776 17.6505 15.156 17.0275C14.537 16.4045 13.653 16.2795 13.182 16.7475L13.14 16.7925L13.137 16.7905L9.89403 20.0345ZM12.01 4.76246C11.9454 4.5052 11.7813 4.28413 11.5537 4.14788C11.3262 4.01164 11.0538 3.97138 10.7965 4.03596C10.5393 4.10054 10.3182 4.26467 10.182 4.49225C10.0457 4.71982 10.0054 4.9922 10.07 5.24946L11.03 8.21346C11.0946 8.47072 11.2587 8.69179 11.4863 8.82803C11.599 8.89549 11.7239 8.9401 11.8538 8.9593C11.9837 8.97851 12.1161 8.97193 12.2435 8.93996C12.3709 8.90798 12.4907 8.85123 12.5962 8.77294C12.7016 8.69465 12.7906 8.59636 12.8581 8.48367C12.9256 8.37099 12.9702 8.24612 12.9894 8.1162C13.0086 7.98627 13.002 7.85384 12.97 7.72646L12.01 4.76246ZM4.29303 5.24946C4.38561 5.15615 4.49575 5.0821 4.61709 5.03156C4.73843 4.98102 4.86858 4.955 5.00003 4.955C5.13147 4.955 5.26162 4.98102 5.38296 5.03156C5.5043 5.0821 5.61444 5.15615 5.70703 5.24946L9.70703 9.26946C9.8942 9.45856 9.99919 9.71389 9.99919 9.97996C9.99919 10.246 9.8942 10.5014 9.70703 10.6905C9.61444 10.7838 9.5043 10.8578 9.38296 10.9084C9.26162 10.9589 9.13147 10.9849 9.00003 10.9849C8.86858 10.9849 8.73843 10.9589 8.61709 10.9084C8.49575 10.8578 8.38561 10.7838 8.29303 10.6905L4.29303 6.67046C4.10585 6.48135 4.00086 6.22603 4.00086 5.95996C4.00086 5.69389 4.10585 5.43856 4.29303 5.24946ZM4.27503 11.0235C4.02329 10.9646 3.75856 11.0049 3.53576 11.1361C3.31296 11.2672 3.1492 11.4791 3.07845 11.7277C3.0077 11.9764 3.03539 12.2427 3.15578 12.4715C3.27617 12.7003 3.48002 12.874 3.72503 12.9565L7.22503 13.9615C7.47677 14.0203 7.7415 13.98 7.96429 13.8488C8.18709 13.7177 8.35086 13.5058 8.42161 13.2572C8.49236 13.0085 8.46466 12.7422 8.34427 12.5134C8.22388 12.2846 8.02004 12.111 7.77503 12.0285L4.27503 11.0235ZM28.961 20.2865C28.9253 20.413 28.8649 20.5312 28.7835 20.6344C28.702 20.7376 28.6009 20.8237 28.4861 20.8878C28.3713 20.9519 28.245 20.9927 28.1144 21.0079C27.9838 21.0231 27.8515 21.0124 27.725 20.9765L24.225 19.9725C23.98 19.89 23.7762 19.7163 23.6558 19.4875C23.5354 19.2587 23.5077 18.9924 23.5784 18.7437C23.6492 18.4951 23.813 18.2832 24.0358 18.1521C24.2586 18.0209 24.5233 17.9806 24.775 18.0395L28.275 19.0445C28.805 19.1965 29.113 19.7535 28.961 20.2865ZM26.293 26.7515C26.3856 26.8448 26.4958 26.9188 26.6171 26.9694C26.7384 27.0199 26.8686 27.0459 27 27.0459C27.1315 27.0459 27.2616 27.0199 27.383 26.9694C27.5043 26.9188 27.6144 26.8448 27.707 26.7515C27.8942 26.5624 27.9992 26.307 27.9992 26.041C27.9992 25.7749 27.8942 25.5196 27.707 25.3305L23.707 21.3105C23.6144 21.2172 23.5043 21.1431 23.383 21.0926C23.2616 21.042 23.1315 21.016 23 21.016C22.8686 21.016 22.7384 21.042 22.6171 21.0926C22.4958 21.1431 22.3856 21.2172 22.293 21.3105C22.1062 21.4995 22.0014 21.7546 22.0014 22.0205C22.0014 22.2863 22.1062 22.5414 22.293 22.7305L26.293 26.7515ZM21.203 27.9705C21.0753 28.0023 20.9426 28.0086 20.8124 27.989C20.6822 27.9694 20.5572 27.9243 20.4445 27.8563C20.3318 27.7883 20.2337 27.6987 20.1557 27.5927C20.0777 27.4867 20.0214 27.3663 19.99 27.2385L19.03 24.2745C18.998 24.1471 18.9913 24.0146 19.0105 23.8847C19.0296 23.7547 19.0742 23.6298 19.1416 23.5171C19.209 23.4044 19.298 23.306 19.4034 23.2277C19.5088 23.1493 19.6286 23.0925 19.756 23.0605C19.8834 23.0284 20.0159 23.0218 20.1458 23.0409C20.2758 23.0601 20.4007 23.1046 20.5134 23.172C20.6261 23.2394 20.7245 23.3284 20.8028 23.4338C20.8812 23.5393 20.938 23.6591 20.97 23.7865L21.93 26.7515C21.9949 27.0095 21.9548 27.2827 21.8185 27.5112C21.6822 27.7397 21.4609 27.9049 21.203 27.9705Z" fill="#FD2F00" fill-opacity="0.9"/>
</svg>
