<svg xmlns="http://www.w3.org/2000/svg" version="1.1" xmlns:xlink="http://www.w3.org/1999/xlink" width="512" height="512" x="0" y="0" viewBox="0 0 512 512" style="enable-background:new 0 0 512 512" xml:space="preserve" class=""><g><path fill="#3e3e42" fill-rule="evenodd" d="M290.034 460.146c-2.315 7.252-6.887 13.501-12.891 17.918C271.216 482.424 263.904 485 256 485s-15.217-2.576-21.143-6.936c-6.074-4.469-10.683-10.81-12.971-18.17a3.993 3.993 0 0 1 3.813-5.182v-.006h60.602a4 4 0 0 1 3.733 5.44z" clip-rule="evenodd" opacity="1" data-original="#3e3e42" class=""></path><path fill="#eceff1" fill-rule="evenodd" d="M213.533 379.638h84.934c4.545 0 8.674 1.857 11.664 4.847 2.991 2.99 4.847 7.119 4.847 11.664s-1.856 8.674-4.847 11.665c-.293.293-.598.576-.913.847.315.271.619.553.913.847 2.991 2.991 4.847 7.119 4.847 11.664s-1.856 8.674-4.847 11.665a16.614 16.614 0 0 1-4.566 3.236 16.425 16.425 0 0 1 3.485 10.122c0 4.545-1.856 8.674-4.847 11.665-2.99 2.991-7.12 4.847-11.664 4.847h-73.077c-4.545 0-8.674-1.857-11.664-4.847-2.99-2.991-4.847-7.12-4.847-11.664 0-3.808 1.303-7.324 3.485-10.122a16.63 16.63 0 0 1-4.566-3.236c-2.99-2.991-4.847-7.12-4.847-11.664 0-4.545 1.856-8.674 4.847-11.665.293-.293.598-.576.913-.847a17.006 17.006 0 0 1-.913-.847c-2.99-2.99-4.847-7.12-4.847-11.665s1.856-8.674 4.847-11.664c2.989-2.991 7.118-4.848 11.663-4.848z" clip-rule="evenodd" opacity="1" data-original="#eceff1" class=""></path><path fill="#d4d7d9" fill-rule="evenodd" d="M283.467 379.638h15c4.545 0 8.674 1.857 11.664 4.847 2.991 2.99 4.847 7.119 4.847 11.664s-1.856 8.674-4.847 11.665c-.293.293-.598.576-.913.847.315.271.619.553.913.847 2.991 2.991 4.847 7.119 4.847 11.664s-1.856 8.674-4.847 11.665a16.614 16.614 0 0 1-4.566 3.236 16.425 16.425 0 0 1 3.485 10.122c0 4.545-1.856 8.674-4.847 11.665-2.99 2.991-7.12 4.847-11.664 4.847h-15c4.545 0 8.674-1.857 11.664-4.847 2.991-2.991 4.847-7.12 4.847-11.665 0-3.808-1.303-7.324-3.485-10.122a16.614 16.614 0 0 0 4.566-3.236c2.991-2.991 4.847-7.12 4.847-11.665s-1.856-8.674-4.847-11.664a16.634 16.634 0 0 0-.913-.847c.315-.271.619-.554.913-.847 2.991-2.99 4.847-7.12 4.847-11.665s-1.856-8.674-4.847-11.664c-2.99-2.99-7.119-4.847-11.664-4.847z" clip-rule="evenodd" opacity="1" data-original="#d4d7d9"></path><path fill="#bfc2c3" fill-rule="evenodd" d="M312.603 404.661a16.655 16.655 0 0 1-3.385 4 16.606 16.606 0 0 1 3.385 4H199.396a16.655 16.655 0 0 1 3.385-4 16.655 16.655 0 0 1-3.385-4zm0 25.023a16.687 16.687 0 0 1-2.472 3.153 16.614 16.614 0 0 1-4.566 3.236c.4.514.771 1.052 1.11 1.611h-101.35a16.72 16.72 0 0 1 1.109-1.611 16.63 16.63 0 0 1-7.038-6.389z" clip-rule="evenodd" opacity="1" data-original="#bfc2c3" class=""></path><path fill="#ffb400" fill-rule="evenodd" d="M256 120.795c33.958 0 64.702 13.765 86.956 36.019s36.019 52.998 36.019 86.956c0 15.333-2.817 30.025-7.962 43.587a122.954 122.954 0 0 1-22.987 37.954c-4.68 5.277-8.168 10.937-10.479 17.027-2.307 6.077-3.451 12.63-3.451 19.707 0 7.042-2.878 13.442-7.515 18.078s-11.036 7.515-18.079 7.515H203.498c-7.043 0-13.442-2.878-18.079-7.515s-7.515-11.036-7.515-18.078c0-7.077-1.144-13.63-3.451-19.707-2.312-6.09-5.799-11.75-10.479-17.027a122.954 122.954 0 0 1-22.987-37.954c-5.145-13.561-7.962-28.254-7.962-43.587 0-33.958 13.765-64.702 36.019-86.956s52.998-36.019 86.956-36.019z" clip-rule="evenodd" opacity="1" data-original="#ffd266" class=""></path><path fill="#eceff1" fill-rule="evenodd" d="M186.091 235.123a3.998 3.998 0 1 1-7.937-.969 78.356 78.356 0 0 1 18.054-41.142 78.368 78.368 0 0 1 37.674-24.489 3.99 3.99 0 0 1 2.25 7.656 70.38 70.38 0 0 0-33.831 21.989 70.385 70.385 0 0 0-16.21 36.955z" clip-rule="evenodd" opacity="1" data-original="#eceff1" class=""></path><path fill="#ffb400" fill-rule="evenodd" d="M252 31a4 4 0 0 1 8 0v52.85a4 4 0 0 1-8 0zm106.932 26.521a3.983 3.983 0 0 1 6.906 3.969l-26.425 45.769a3.983 3.983 0 0 1-6.906-3.968zm79.331 76.411a3.99 3.99 0 0 1 4 6.906l-45.769 26.425a3.99 3.99 0 0 1-4-6.906zm30.506 105.838a4 4 0 0 1 0 8h-52.85a4 4 0 0 1 0-8zm-26.505 106.931a3.99 3.99 0 0 1-4 6.906l-45.769-26.425a3.99 3.99 0 0 1 4-6.906zm-368.527 6.906a3.99 3.99 0 0 1-4-6.906l45.769-26.425a3.99 3.99 0 0 1 4 6.906zM43.231 247.77a4 4 0 0 1 0-8h52.85a4 4 0 0 1 0 8zm26.505-106.932a3.99 3.99 0 0 1 4-6.906l45.769 26.425a3.99 3.99 0 1 1-4 6.906zm76.426-79.348a3.983 3.983 0 0 1 6.906-3.969l26.425 45.769a3.982 3.982 0 1 1-6.907 3.968z" clip-rule="evenodd" opacity="1" data-original="#ffd266" class=""></path><path fill="#e7a200" fill-rule="evenodd" d="M322.546 342.338c-2.307 6.077-3.451 12.63-3.451 19.707 0 16.589-11.488 13.963-19.353 13.963H182.073a25.83 25.83 0 0 0 3.346 4.115c4.637 4.636 11.036 7.515 18.079 7.515h105.004c6.845-.044 13.212-2.648 18.079-7.515 4.637-4.637 7.515-11.036 7.515-18.078 0-7.077 1.144-13.63 3.451-19.707 2.312-6.09 5.799-11.75 10.479-17.027a122.954 122.954 0 0 0 22.987-37.954c5.145-13.562 7.962-28.254 7.962-43.587 0-33.958-13.765-64.702-36.019-86.956S289.958 120.795 256 120.795c-2.518 0-5.019.076-7.5.225 30.971 1.863 58.852 15.19 79.456 35.794 22.254 22.254 36.019 52.998 36.019 86.956 0 15.333-2.817 30.025-7.962 43.587a122.954 122.954 0 0 1-22.987 37.954c-4.681 5.277-8.168 10.937-10.48 17.027z" clip-rule="evenodd" opacity="1" data-original="#e6bd5c" class=""></path><path fill="#323235" fill-rule="evenodd" d="M279.764 462.707a35.815 35.815 0 0 1-12.372 16.407 35.588 35.588 0 0 1-12.459 5.87 35.56 35.56 0 0 0 22.209-6.92 35.846 35.846 0 0 0 11.964-15.357z" clip-rule="evenodd" opacity="1" data-original="#323235" class=""></path></g></svg>