<svg width="23" height="23" viewBox="0 0 23 23" fill="none" xmlns="http://www.w3.org/2000/svg">
<path d="M19.2131 14.3636C20.6384 12.8834 21.7718 11.7078 21.8928 11.5868C22.2399 11.2397 22.1531 10.9793 21.8928 10.719C21.6325 10.4587 20.0705 8.80991 19.7234 8.46281C19.3763 8.11571 19.2027 8.11571 18.8556 8.46281C18.7323 8.58617 17.5128 9.78368 15.992 11.2763M19.2131 14.3636C16.55 17.1294 12.868 20.9587 12.868 20.9587L8.52917 22L9.48372 17.6612C9.48372 17.6612 13.2336 13.9834 15.992 11.2763M19.2131 14.3636L15.992 11.2763" stroke="black" stroke-width="1.5"/>
<path d="M7.22768 19.2231C7.22768 19.2231 3.32289 19.3967 2.2814 19.3967C1.2399 19.3967 0.979758 19.1364 0.979743 18.095C0.979728 17.0537 0.979743 14.9711 0.979743 14.9711M17.5541 7.07438V5.77273M17.5541 5.77273C17.5541 5.77273 17.5541 3.2562 17.5541 2.30165C17.5541 1.3471 17.1201 1 16.0789 1C15.0378 1 3.49645 1 2.45495 1C1.41345 1 0.979748 1.26033 0.979743 2.30165C0.979738 3.34298 0.979743 5.77273 0.979743 5.77273M17.5541 5.77273H9.26693M0.979743 5.77273V10.4587M0.979743 5.77273H9.26693M0.979743 10.4587H14.1698M0.979743 10.4587V14.9711M9.26693 5.77273V14.9711H0.979743" stroke="black" stroke-width="1.5" stroke-miterlimit="16" stroke-linejoin="round"/>
</svg>
