<svg width="17" height="22" viewBox="0 0 17 22" fill="none" xmlns="http://www.w3.org/2000/svg">
<path d="M16.1162 16.0347L14.7187 14.6372V9.22054C14.7187 5.89471 12.942 3.11054 9.84368 2.37387V1.63721C9.84368 0.73804 9.11785 0.012207 8.21868 0.012207C7.31952 0.012207 6.59368 0.73804 6.59368 1.63721V2.37387C3.48452 3.11054 1.71868 5.88387 1.71868 9.22054V14.6372L0.321184 16.0347C-0.361316 16.7172 0.11535 17.8872 1.07952 17.8872H15.347C16.322 17.8872 16.7987 16.7172 16.1162 16.0347ZM12.552 15.7205H3.88535V9.22054C3.88535 6.53387 5.52118 4.34554 8.21868 4.34554C10.9162 4.34554 12.552 6.53387 12.552 9.22054V15.7205ZM8.21868 21.1372C9.41035 21.1372 10.3854 20.1622 10.3854 18.9705H6.05202C6.05202 20.1622 7.01618 21.1372 8.21868 21.1372Z" fill="black"/>
</svg>
