<svg width="134" height="156" viewBox="0 0 134 156" fill="none" xmlns="http://www.w3.org/2000/svg">
<path d="M21 6C21 2.6863 23.6863 0 27 0H105.515C107.106 0 108.632 0.632141 109.757 1.75736L132.243 24.2426C133.368 25.3679 134 26.894 134 28.4853V150C134 153.314 131.314 156 128 156H27C23.6863 156 21 153.314 21 150V6Z" fill="#E6EFFF"/>
<path d="M108 0H105.5L134 28.5V25.5L108 0Z" fill="#E6EFFF"/>
<path d="M11 83C11.4738 86.4293 13.4193 87.0548 18 87.0019H112C113.657 87.0019 115 88.345 115 90.0019V127.002C115 128.659 113.657 130.002 112 130.002H11V83Z" fill="#FB4B4B"/>
<path d="M11 82C11 79.7909 12.7909 78 15 78H21V87H15C12.7909 87 11 85.2091 11 83V82Z" fill="#E62121"/>
<path d="M37.9755 119V98.6364H45.234C46.8183 98.6364 48.1308 98.9247 49.1715 99.5014C50.2122 100.078 50.9911 100.867 51.5082 101.868C52.0252 102.862 52.2837 103.982 52.2837 105.229C52.2837 106.482 52.0219 107.608 51.4982 108.609C50.9812 109.604 50.199 110.393 49.1516 110.976C48.1109 111.553 46.8017 111.841 45.2241 111.841H40.2326V109.236H44.9457C45.9466 109.236 46.7586 109.063 47.3817 108.719C48.0049 108.367 48.4622 107.89 48.7539 107.287C49.0456 106.684 49.1914 105.998 49.1914 105.229C49.1914 104.46 49.0456 103.777 48.7539 103.18C48.4622 102.584 48.0015 102.116 47.3718 101.778C46.7487 101.44 45.9267 101.271 44.9059 101.271H41.0479V119H37.9755ZM62.478 119H55.8857V98.6364H62.6868C64.6821 98.6364 66.3956 99.044 67.8274 99.8594C69.2592 100.668 70.3563 101.831 71.1186 103.349C71.8875 104.861 72.272 106.674 72.272 108.788C72.272 110.91 71.8842 112.732 71.1087 114.257C70.3397 115.782 69.2261 116.955 67.7678 117.777C66.3094 118.592 64.5462 119 62.478 119ZM58.9581 116.315H62.3089C63.8601 116.315 65.1494 116.024 66.1768 115.44C67.2043 114.85 67.9732 113.999 68.4837 112.885C68.9941 111.765 69.2493 110.399 69.2493 108.788C69.2493 107.191 68.9941 105.835 68.4837 104.722C67.9799 103.608 67.2275 102.763 66.2266 102.186C65.2256 101.609 63.9827 101.321 62.4979 101.321H58.9581V116.315ZM76.0927 119V98.6364H88.7205V101.281H79.1651V107.486H87.8157V110.121H79.1651V119H76.0927Z" fill="white"/>
<path d="M108 25.5V0L134 25.5H108Z" fill="#B5D1FF"/>
</svg>
