<svg width="22" height="22" viewBox="0 0 22 22" fill="none" xmlns="http://www.w3.org/2000/svg">
<path d="M10.9999 21.2457C16.5949 21.2457 21.2453 16.6052 21.2453 11.0003C21.2453 5.40531 16.5846 0.754883 10.9896 0.754883C5.38517 0.754883 0.754883 5.40531 0.754883 11.0003C0.754883 16.6052 5.39503 21.2457 10.9999 21.2457ZM11.0003 19.5383C6.2586 19.5383 2.47131 15.7412 2.47131 11.0003C2.47131 6.26888 6.24831 2.46231 10.9896 2.46231C15.7206 2.46231 19.5272 6.26931 19.5375 11.0003C19.5473 15.7416 15.7305 19.5383 10.9995 19.5383M8.58874 13.3712C10.9287 15.7215 13.9125 17.2077 15.6803 15.4497C15.7429 15.388 15.7999 15.3208 15.8509 15.2492C16.3129 14.737 16.4436 14.0539 15.8509 13.612C15.3889 13.2803 14.8969 12.9392 14.0629 12.3563C13.4805 11.9449 13.0986 12.0447 12.6469 12.4969L12.2449 12.8886C12.1245 12.9992 11.9337 12.9893 11.803 12.9087C11.4516 12.6979 10.8589 12.2256 10.2962 11.6633C9.74374 11.1105 9.24188 10.4882 9.05074 10.1565C8.98045 10.0459 8.93031 9.86503 9.07088 9.73474L9.4626 9.3126C9.91474 8.84074 10.015 8.47903 9.59331 7.88631L8.35774 6.1386C7.9356 5.54588 7.32317 5.65645 6.64988 6.15874C6.59974 6.19903 6.55988 6.23931 6.5196 6.27917C4.75174 8.04703 6.24831 11.0303 8.58874 13.3707" fill="#0D52A7"/>
</svg>
