<svg width="20" height="24" viewBox="0 0 20 24" fill="none" xmlns="http://www.w3.org/2000/svg">
<path d="M3.625 1H11.8822C12.1706 1 12.445 1.12453 12.6348 1.34161L18.1353 7.62976C18.2947 7.81204 18.3826 8.04598 18.3826 8.28815V21.12C18.3826 22.2246 17.4871 23.12 16.3826 23.12H3.625C2.52043 23.12 1.625 22.2246 1.625 21.12V3C1.625 1.89543 2.52043 1 3.625 1Z" stroke="#3E3E3E" stroke-width="1.4"/>
<path d="M12.0156 1.50391V6.87178C12.0156 7.42407 12.4633 7.87179 13.0156 7.87179H17.8808" stroke="#3E3E3E" stroke-width="1.4"/>
<rect x="4.76562" y="14.6172" width="10.4735" height="1.04735" rx="0.523674" fill="#3E3E3E"/>
<rect x="4.76562" y="17.7578" width="10.4735" height="1.04735" rx="0.523674" fill="#3E3E3E"/>
<circle cx="7.66092" cy="5.69217" r="1.34061" fill="#3E3E3E"/>
<path d="M10.6741 10.8863C10.6741 9.95296 10.374 9.05786 9.83975 8.39791C9.3055 7.73795 8.5809 7.36719 7.82535 7.36719C7.06981 7.36719 6.3452 7.73795 5.81095 8.39791C5.2767 9.05786 4.97656 9.95296 4.97656 10.8863L7.82535 10.8863H10.6741Z" fill="#3E3E3E"/>
</svg>
