<svg width="25" height="24" viewBox="0 0 25 24" fill="none" xmlns="http://www.w3.org/2000/svg">
<path d="M7.16673 21.7681H17.8339C19.9133 21.7681 20.9479 20.7134 20.9479 18.6241V11.5037C20.9479 10.2077 20.8073 9.64542 20.0037 8.82171L14.4589 3.18685C13.696 2.40299 13.0729 2.23242 11.938 2.23242H7.16673C5.09759 2.23242 4.05273 3.29699 4.05273 5.38671V18.6241C4.05273 20.7233 5.09759 21.7681 7.16673 21.7681ZM7.24688 20.1511C6.21231 20.1511 5.66973 19.5983 5.66973 18.5941V5.41671C5.66973 4.42242 6.21231 3.84942 7.25716 3.84942H11.7169V9.68571C11.7169 10.9513 12.3597 11.574 13.6052 11.574H19.3309V18.5941C19.3309 19.5983 18.7982 20.1511 17.7537 20.1511H7.24688ZM13.786 10.0569C13.3943 10.0569 13.2332 9.89656 13.2332 9.49456V4.16099L19.0189 10.0573L13.786 10.0569Z" fill="white"/>
</svg>
