<svg width="24" height="24" viewBox="0 0 24 24" fill="none" xmlns="http://www.w3.org/2000/svg">
<path d="M6.66625 21.7681H17.3334C19.4128 21.7681 20.4474 20.7134 20.4474 18.6241V11.5037C20.4474 10.2077 20.3068 9.64542 19.5032 8.82171L13.9584 3.18685C13.1955 2.40299 12.5724 2.23242 11.4375 2.23242H6.66625C4.5971 2.23242 3.55225 3.29699 3.55225 5.38671V18.6241C3.55225 20.7233 4.5971 21.7681 6.66625 21.7681ZM6.74639 20.1511C5.71182 20.1511 5.16925 19.5983 5.16925 18.5941V5.41671C5.16925 4.42242 5.71182 3.84942 6.75667 3.84942H11.2164V9.68571C11.2164 10.9513 11.8592 11.574 13.1047 11.574H18.8304V18.5941C18.8304 19.5983 18.2977 20.1511 17.2532 20.1511H6.74639ZM13.2855 10.0569C12.8938 10.0569 12.7327 9.89656 12.7327 9.49456V4.16099L18.5184 10.0573L13.2855 10.0569Z" fill="#0D52A7"/>
</svg>
