<svg width="24" height="24" viewBox="0 0 24 24" fill="none" xmlns="http://www.w3.org/2000/svg">
<path d="M6.66673 21.7681H17.3339C19.4133 21.7681 20.4479 20.7134 20.4479 18.6241V11.5037C20.4479 10.2077 20.3073 9.64542 19.5037 8.82171L13.9589 3.18685C13.196 2.40299 12.5729 2.23242 11.438 2.23242H6.66673C4.59759 2.23242 3.55273 3.29699 3.55273 5.38671V18.6241C3.55273 20.7233 4.59759 21.7681 6.66673 21.7681ZM6.74688 20.1511C5.71231 20.1511 5.16973 19.5983 5.16973 18.5941V5.41671C5.16973 4.42242 5.71231 3.84942 6.75716 3.84942H11.2169V9.68571C11.2169 10.9513 11.8597 11.574 13.1052 11.574H18.8309V18.5941C18.8309 19.5983 18.2982 20.1511 17.2537 20.1511H6.74688ZM13.286 10.0569C12.8943 10.0569 12.7332 9.89656 12.7332 9.49456V4.16099L18.5189 10.0573L13.286 10.0569Z" fill="white"/>
</svg>
