<svg width="24" height="24" viewBox="0 0 24 24" fill="none" xmlns="http://www.w3.org/2000/svg">
<path d="M8.26702 18.653C8.07041 18.4564 7.95996 18.1896 7.95996 17.9116C7.95996 17.6335 8.07041 17.3668 8.26702 17.1701L13.4584 11.9788L8.26702 6.78742C8.07598 6.58962 7.97027 6.3247 7.97266 6.04972C7.97505 5.77474 8.08535 5.5117 8.2798 5.31726C8.47424 5.12281 8.73729 5.01251 9.01226 5.01012C9.28724 5.00773 9.55216 5.11344 9.74996 5.30448L15.6828 11.2373C15.8794 11.434 15.9898 11.7007 15.9898 11.9788C15.9898 12.2568 15.8794 12.5236 15.6828 12.7202L9.74996 18.653C9.55329 18.8496 9.28658 18.9601 9.00849 18.9601C8.7304 18.9601 8.46369 18.8496 8.26702 18.653Z" fill="black"/>
</svg>
