<svg width="24" height="24" viewBox="0 0 24 24" fill="none" xmlns="http://www.w3.org/2000/svg">
<path d="M21.0729 14.37L21.7911 13.9474L21.7856 13.9379L21.7797 13.9286L21.0729 14.37ZM20.2742 13.58L20.6761 12.85L20.6637 12.8432L20.6511 12.8368L20.2742 13.58ZM21.0532 16.42L21.7756 16.8355L21.7828 16.823L21.7896 16.8102L21.0532 16.42ZM20.3629 17.62L19.6406 17.2045L19.639 17.2073L20.3629 17.62ZM17.5723 18.36L17.1118 19.0545L17.1189 19.0593L17.1262 19.0639L17.5723 18.36ZM14.8802 19.95L14.0473 19.9251L14.0469 19.9376V19.95H14.8802ZM9.44682 19.95H10.2802V19.9417L10.28 19.9334L9.44682 19.95ZM6.76463 18.36L7.21075 19.0639L7.2244 19.0552L7.23771 19.046L6.76463 18.36ZM3.96411 17.62L3.2392 18.031L3.24016 18.0327L3.96411 17.62ZM3.2837 16.42L2.55702 16.8279L2.55879 16.831L3.2837 16.42ZM3.26398 14.37L3.98218 14.7926L3.99227 14.7755L4.00153 14.7579L3.26398 14.37ZM4.05286 13.58L3.676 12.8368L3.65879 12.8455L3.642 12.855L4.05286 13.58ZM4.6741 12.94L5.38208 13.3796L5.38978 13.3672L5.39705 13.3545L4.6741 12.94ZM4.03314 10.44L4.4663 9.72809L4.45985 9.72416L4.45332 9.72035L4.03314 10.44ZM3.30343 7.61L4.02812 8.02145L4.03054 8.01712L3.30343 7.61ZM3.96411 6.43L3.24247 6.0131L3.23699 6.02288L3.96411 6.43ZM6.74491 5.67L6.32243 6.3883L6.33017 6.39285L6.33802 6.39724L6.74491 5.67ZM9.22002 4.98L9.93722 5.40434L9.94171 5.39676L9.94603 5.38909L9.22002 4.98ZM9.44682 4.1L8.61446 4.14209L8.61529 4.15467L9.44682 4.1ZM9.72293 3.04L10.4297 3.48143L10.4356 3.47211L10.4411 3.46265L9.72293 3.04ZM11.4683 2V1.16667H11.4568L11.4452 1.16699L11.4683 2ZM14.614 3.04L13.8958 3.46265L13.8968 3.46434L14.614 3.04ZM14.8802 4.1L14.0492 4.03697L14.0487 4.04533L14.8802 4.1ZM15.107 4.98L14.381 5.38909L14.3853 5.39676L14.3898 5.40434L15.107 4.98ZM17.592 5.67L17.9954 6.39921L18.0066 6.39299L18.0176 6.38643L17.592 5.67ZM20.3629 6.43L21.0901 6.02288L21.0876 6.01856L20.3629 6.43ZM21.0236 7.61L20.2964 8.01715L20.3021 8.02686L21.0236 7.61ZM20.2939 10.44L19.8769 9.71853L19.8688 9.72322L19.8607 9.72809L20.2939 10.44ZM19.6628 12.94L20.3823 12.5196L20.3822 12.5193L19.6628 12.94ZM21.7797 13.9286C21.5426 13.5489 21.1822 13.1286 20.6761 12.85L19.8723 14.31C20.0565 14.4114 20.2285 14.5911 20.3661 14.8114L21.7797 13.9286ZM21.7896 16.8102C22.2554 15.9309 22.3276 14.8589 21.7911 13.9474L20.3547 14.7926C20.548 15.1211 20.561 15.5691 20.3169 16.0298L21.7896 16.8102ZM21.0853 18.0355L21.7756 16.8355L20.3309 16.0045L19.6406 17.2045L21.0853 18.0355ZM18.6175 19.4933C19.629 19.4933 20.5798 18.9222 21.0869 18.0327L19.639 17.2073C19.4164 17.5978 19.0064 17.8267 18.6175 17.8267V19.4933ZM17.1262 19.0639C17.5844 19.3543 18.1258 19.4933 18.6175 19.4933V17.8267C18.419 17.8267 18.1912 17.7657 18.0184 17.6561L17.1262 19.0639ZM16.7045 18.9633C16.917 18.9633 17.035 19.0036 17.1118 19.0545L18.0328 17.6655C17.5968 17.3764 17.1231 17.2967 16.7045 17.2967V18.9633ZM15.7132 19.9749C15.7301 19.4098 16.2039 18.9633 16.7045 18.9633V17.2967C15.2527 17.2967 14.0895 18.5102 14.0473 19.9251L15.7132 19.9749ZM12.839 22.8333C14.4337 22.8333 15.7136 21.5598 15.7136 19.95H14.0469C14.0469 20.6402 13.5124 21.1667 12.839 21.1667V22.8333ZM11.4979 22.8333H12.839V21.1667H11.4979V22.8333ZM8.61349 19.95C8.61349 21.5624 9.89601 22.8333 11.4979 22.8333V21.1667C10.8121 21.1667 10.2802 20.6376 10.2802 19.95H8.61349ZM7.6324 18.9633C8.13447 18.9633 8.60256 19.4096 8.61366 19.9666L10.28 19.9334C10.2516 18.5104 9.08281 17.2967 7.6324 17.2967V18.9633ZM7.23771 19.046C7.29508 19.0065 7.40278 18.9633 7.6324 18.9633V17.2967C7.2112 17.2967 6.72724 17.3735 6.29155 17.674L7.23771 19.046ZM5.71937 19.4933C6.1991 19.4933 6.7508 19.3554 7.21075 19.0639L6.31852 17.6561C6.14737 17.7646 5.91019 17.8267 5.71937 17.8267V19.4933ZM3.24016 18.0327C3.7484 18.9242 4.70032 19.4933 5.71937 19.4933V17.8267C5.31843 17.8267 4.90954 17.5958 4.68807 17.2073L3.24016 18.0327ZM2.55879 16.831L3.2392 18.031L4.68902 17.209L4.00862 16.009L2.55879 16.831ZM2.54578 13.9474C2.01514 14.8491 2.06245 15.9468 2.55702 16.8279L4.01038 16.0121C3.77524 15.5932 3.78311 15.1309 3.98218 14.7926L2.54578 13.9474ZM3.642 12.855C3.18144 13.116 2.76554 13.5275 2.52643 13.9821L4.00153 14.7579C4.07798 14.6125 4.25373 14.424 4.46372 14.305L3.642 12.855ZM3.96613 12.5004C3.81878 12.7378 3.74131 12.8036 3.676 12.8368L4.42972 14.3232C4.91663 14.0764 5.19415 13.6822 5.38208 13.3796L3.96613 12.5004ZM3.59997 11.1519C4.0532 11.4277 4.21892 12.0585 3.95116 12.5255L5.39705 13.3545C6.11538 12.1015 5.68944 10.4723 4.4663 9.72809L3.59997 11.1519ZM2.57875 7.19856C1.80174 8.56712 2.22478 10.3491 3.61296 11.1596L4.45332 9.72035C3.88902 9.39087 3.68096 8.63288 4.02811 8.02144L2.57875 7.19856ZM3.23699 6.02288L2.57631 7.20288L4.03054 8.01712L4.69123 6.83712L3.23699 6.02288ZM7.1674 4.9517C5.76506 4.12688 4.03578 4.64007 3.24254 6.01314L4.68569 6.84686C5.03632 6.23993 5.75257 6.05312 6.32243 6.3883L7.1674 4.9517ZM8.50282 4.55566C8.22146 5.0312 7.59998 5.19351 7.15181 4.94276L6.33802 6.39724C7.60565 7.10649 9.21276 6.6288 9.93722 5.40434L8.50282 4.55566ZM8.61529 4.15467C8.62171 4.25241 8.59503 4.39164 8.49401 4.57091L9.94603 5.38909C10.1606 5.00836 10.3114 4.54759 10.2784 4.04533L8.61529 4.15467ZM9.01612 2.59857C8.74402 3.03426 8.58571 3.57173 8.61455 4.14209L10.2791 4.05791C10.2685 3.84827 10.3271 3.64574 10.4297 3.48143L9.01612 2.59857ZM11.4452 1.16699C10.4309 1.19517 9.51128 1.75657 9.00473 2.61735L10.4411 3.46265C10.6643 3.08343 11.066 2.84483 11.4915 2.83301L11.4452 1.16699ZM12.8587 1.16667H11.4683V2.83333H12.8587V1.16667ZM15.3322 2.61735C14.8336 1.77009 13.9139 1.16667 12.8587 1.16667V2.83333C13.2629 2.83333 13.6647 3.06991 13.8958 3.46265L15.3322 2.61735ZM15.7112 4.16303C15.7565 3.56598 15.5748 3.02732 15.3312 2.61566L13.8968 3.46434C14.0082 3.65268 14.0632 3.85402 14.0493 4.03697L15.7112 4.16303ZM15.833 4.57091C15.732 4.39164 15.7053 4.25241 15.7118 4.15467L14.0487 4.04533C14.0157 4.54759 14.1665 5.00836 14.381 5.38909L15.833 4.57091ZM17.1886 4.94079C16.7261 5.19665 16.1039 5.02829 15.8242 4.55566L14.3898 5.40434C15.116 6.63171 16.7224 7.10335 17.9954 6.39921L17.1886 4.94079ZM21.0876 6.01856C20.304 4.63841 18.5591 4.12611 17.1664 4.95357L18.0176 6.38643C18.5774 6.05389 19.2977 6.24159 19.6383 6.84144L21.0876 6.01856ZM21.7507 7.20288L21.0901 6.02288L19.6358 6.83712L20.2965 8.01712L21.7507 7.20288ZM20.711 11.1615C22.1114 10.352 22.538 8.56546 21.7452 7.19314L20.3021 8.02686C20.6531 8.63454 20.4487 9.38802 19.8769 9.71853L20.711 11.1615ZM20.3822 12.5193C20.1107 12.0551 20.2739 11.4276 20.7271 11.1519L19.8607 9.72809C18.6376 10.4724 18.2091 12.1049 18.9434 13.3607L20.3822 12.5193ZM20.6511 12.8368C20.5881 12.8048 20.5113 12.7403 20.3823 12.5196L18.9433 13.3604C19.1299 13.6797 19.408 14.0752 19.8973 14.3232L20.6511 12.8368ZM12.1784 13.9972C11.0937 13.9972 10.2112 13.1237 10.2112 12.0106H8.54451C8.54451 14.0375 10.1666 15.6639 12.1784 15.6639V13.9972ZM14.116 12.0106C14.116 13.1353 13.2515 13.9972 12.1784 13.9972V15.6639C14.2016 15.6639 15.7826 14.0259 15.7826 12.0106H14.116ZM12.1784 10.0139C13.2477 10.0139 14.116 10.882 14.116 12.0106H15.7826C15.7826 9.99917 14.2054 8.34725 12.1784 8.34725V10.0139ZM10.2112 12.0106C10.2112 10.8936 11.0976 10.0139 12.1784 10.0139V8.34725C10.1628 8.34725 8.54451 9.98753 8.54451 12.0106H10.2112Z" fill="black"/>
</svg>
