<svg width="21" height="24" viewBox="0 0 21 24" fill="none" xmlns="http://www.w3.org/2000/svg">
<path d="M4.57143 3C3.15313 3 2 4.15313 2 5.57143V18.4286C2 19.8469 3.15313 21 4.57143 21H17.4286C18.8469 21 20 19.8469 20 18.4286V5.57143C20 4.15313 18.8469 3 17.4286 3H4.57143ZM16.5085 6.375L12.3379 11.1402L17.2437 17.625H13.4027L10.3973 13.6915L6.95402 17.625H5.04554L9.50536 12.5263L4.80045 6.375H8.73795L11.458 9.97098L14.6 6.375H16.5085ZM14.9897 16.4839L8.16339 7.4558H7.02634L13.929 16.4839H14.9857H14.9897Z" fill="#0D52A7"/>
</svg>