<svg width="60" height="60" viewBox="0 0 60 60" fill="none" xmlns="http://www.w3.org/2000/svg">
<path d="M-3 -5H63.4824V63.2412H-3V-5Z" fill="#A6A6A6"/>
<path d="M43.4322 25.4271C43.4322 32.7123 37.5264 38.6181 30.2412 38.6181C22.956 38.6181 17.0503 32.7123 17.0503 25.4271C17.0503 18.142 22.956 12.2362 30.2412 12.2362C37.5264 12.2362 43.4322 18.142 43.4322 25.4271Z" fill="#F2F2F2"/>
<path d="M53.6332 64.8241C53.6332 64.8241 42.2808 65 29.3618 65C16.4428 65 6.84925 64.8241 6.84925 64.8241C6.84925 51.9051 17.3222 41.4322 30.2412 41.4322C43.1602 41.4322 53.6332 51.9051 53.6332 64.8241Z" fill="#F2F2F2"/>
</svg>
