<svg width="24" height="24" viewBox="0 0 24 24" fill="none" xmlns="http://www.w3.org/2000/svg">
<path d="M11.9999 22.2457C17.5949 22.2457 22.2453 17.6052 22.2453 12.0003C22.2453 6.40531 17.5846 1.75488 11.9896 1.75488C6.38517 1.75488 1.75488 6.40531 1.75488 12.0003C1.75488 17.6052 6.39503 22.2457 11.9999 22.2457ZM12.0003 20.5383C7.2586 20.5383 3.47131 16.7412 3.47131 12.0003C3.47131 7.26888 7.24831 3.46231 11.9896 3.46231C16.7206 3.46231 20.5272 7.26931 20.5375 12.0003C20.5473 16.7416 16.7305 20.5383 11.9995 20.5383M9.58874 14.3712C11.9287 16.7215 14.9125 18.2077 16.6803 16.4497C16.7429 16.388 16.7999 16.3208 16.8509 16.2492C17.3129 15.737 17.4436 15.0539 16.8509 14.612C16.3889 14.2803 15.8969 13.9392 15.0629 13.3563C14.4805 12.9449 14.0986 13.0447 13.6469 13.4969L13.2449 13.8886C13.1245 13.9992 12.9337 13.9893 12.803 13.9087C12.4516 13.6979 11.8589 13.2256 11.2962 12.6633C10.7437 12.1105 10.2419 11.4882 10.0507 11.1565C9.98045 11.0459 9.93031 10.865 10.0709 10.7347L10.4626 10.3126C10.9147 9.84074 11.015 9.47903 10.5933 8.88631L9.35774 7.1386C8.9356 6.54588 8.32317 6.65645 7.64988 7.15874C7.59974 7.19903 7.55988 7.23931 7.5196 7.27917C5.75174 9.04703 7.24831 12.0303 9.58874 14.3707" fill="#0D52A7"/>
</svg>
