<svg width="24" height="24" viewBox="0 0 24 24" fill="none" xmlns="http://www.w3.org/2000/svg">
<path d="M11.9999 22.2454C17.5949 22.2454 22.2453 17.6049 22.2453 12C22.2453 6.40501 17.5846 1.75458 11.9896 1.75458C6.38517 1.75458 1.75488 6.40501 1.75488 12C1.75488 17.6049 6.39503 22.2454 11.9999 22.2454ZM12.0003 20.538C7.2586 20.538 3.47131 16.7409 3.47131 12C3.47131 7.26858 7.24831 3.46201 11.9896 3.46201C16.7206 3.46201 20.5272 7.26901 20.5375 12C20.5473 16.7413 16.7305 20.538 11.9995 20.538M9.58874 14.3709C11.9287 16.7212 14.9125 18.2074 16.6803 16.4494C16.7429 16.3876 16.7999 16.3205 16.8509 16.2489C17.3129 15.7367 17.4436 15.0536 16.8509 14.6117C16.3889 14.28 15.8969 13.9389 15.0629 13.356C14.4805 12.9446 14.0986 13.0444 13.6469 13.4966L13.2449 13.8883C13.1245 13.9989 12.9337 13.989 12.803 13.9084C12.4516 13.6976 11.8589 13.2253 11.2962 12.663C10.7437 12.1101 10.2419 11.4879 10.0507 11.1561C9.98045 11.0456 9.93031 10.8647 10.0709 10.7344L10.4626 10.3123C10.9147 9.84044 11.015 9.47872 10.5933 8.88601L9.35774 7.13829C8.9356 6.54558 8.32317 6.65615 7.64988 7.15843C7.59974 7.19872 7.55988 7.23901 7.5196 7.27886C5.75174 9.04672 7.24831 12.03 9.58874 14.3704" fill="black"/>
</svg>
